<mxfile host="app.diagrams.net" modified="2023-05-04T16:57:39.889Z" agent="Mozilla/5.0 (Windows NT 10.0; Win64; x64) AppleWebKit/537.36 (KHTML, like Gecko) Chrome/112.0.0.0 Safari/537.36" etag="0y7iw_EgS3AtKnDzNiNe" version="21.2.8" type="device">
  <diagram id="-3KZ8sQtgi4ZOSZBcIpP" name="Page-2">
    <mxGraphModel dx="1434" dy="756" grid="1" gridSize="10" guides="1" tooltips="1" connect="1" arrows="1" fold="1" page="1" pageScale="1" pageWidth="827" pageHeight="1169" math="0" shadow="0">
      <root>
        <mxCell id="0" />
        <mxCell id="1" parent="0" />
        <mxCell id="lK-TBmjNOBdQ8cUcPQU5-29" style="edgeStyle=orthogonalEdgeStyle;rounded=0;orthogonalLoop=1;jettySize=auto;html=1;entryX=0.5;entryY=1;entryDx=0;entryDy=0;" edge="1" parent="1" source="BefUz19iRx9p-KyVa4R2-1" target="lK-TBmjNOBdQ8cUcPQU5-27">
          <mxGeometry relative="1" as="geometry">
            <Array as="points">
              <mxPoint x="140" y="220" />
              <mxPoint x="380" y="220" />
            </Array>
          </mxGeometry>
        </mxCell>
        <mxCell id="lK-TBmjNOBdQ8cUcPQU5-31" style="edgeStyle=orthogonalEdgeStyle;rounded=0;orthogonalLoop=1;jettySize=auto;html=1;entryX=0.5;entryY=0;entryDx=0;entryDy=0;" edge="1" parent="1" source="BefUz19iRx9p-KyVa4R2-1" target="lK-TBmjNOBdQ8cUcPQU5-7">
          <mxGeometry relative="1" as="geometry" />
        </mxCell>
        <mxCell id="BefUz19iRx9p-KyVa4R2-1" value="Vodja radova" style="rounded=0;whiteSpace=wrap;html=1;" vertex="1" parent="1">
          <mxGeometry x="80" y="240" width="120" height="60" as="geometry" />
        </mxCell>
        <mxCell id="lK-TBmjNOBdQ8cUcPQU5-4" value="" style="edgeStyle=orthogonalEdgeStyle;rounded=0;orthogonalLoop=1;jettySize=auto;html=1;" edge="1" parent="1" source="lK-TBmjNOBdQ8cUcPQU5-1" target="lK-TBmjNOBdQ8cUcPQU5-3">
          <mxGeometry relative="1" as="geometry" />
        </mxCell>
        <mxCell id="lK-TBmjNOBdQ8cUcPQU5-1" value="Dozvole za gradiliste" style="rounded=0;whiteSpace=wrap;html=1;" vertex="1" parent="1">
          <mxGeometry x="80" y="540" width="120" height="60" as="geometry" />
        </mxCell>
        <mxCell id="lK-TBmjNOBdQ8cUcPQU5-6" value="" style="edgeStyle=orthogonalEdgeStyle;rounded=0;orthogonalLoop=1;jettySize=auto;html=1;" edge="1" parent="1" source="lK-TBmjNOBdQ8cUcPQU5-3" target="lK-TBmjNOBdQ8cUcPQU5-5">
          <mxGeometry relative="1" as="geometry" />
        </mxCell>
        <mxCell id="lK-TBmjNOBdQ8cUcPQU5-3" value="Finansije" style="rounded=0;whiteSpace=wrap;html=1;" vertex="1" parent="1">
          <mxGeometry x="80" y="680" width="120" height="60" as="geometry" />
        </mxCell>
        <mxCell id="JDFypk0yZ713PvR00XcN-2" value="" style="edgeStyle=orthogonalEdgeStyle;rounded=0;orthogonalLoop=1;jettySize=auto;html=1;" edge="1" parent="1" source="lK-TBmjNOBdQ8cUcPQU5-5" target="JDFypk0yZ713PvR00XcN-1">
          <mxGeometry relative="1" as="geometry" />
        </mxCell>
        <mxCell id="lK-TBmjNOBdQ8cUcPQU5-5" value="Redovan kontrola" style="whiteSpace=wrap;html=1;rounded=0;" vertex="1" parent="1">
          <mxGeometry x="80" y="820" width="120" height="60" as="geometry" />
        </mxCell>
        <mxCell id="lK-TBmjNOBdQ8cUcPQU5-32" style="edgeStyle=orthogonalEdgeStyle;rounded=0;orthogonalLoop=1;jettySize=auto;html=1;" edge="1" parent="1" source="lK-TBmjNOBdQ8cUcPQU5-7" target="lK-TBmjNOBdQ8cUcPQU5-1">
          <mxGeometry relative="1" as="geometry" />
        </mxCell>
        <mxCell id="lK-TBmjNOBdQ8cUcPQU5-7" value="Koordinacija radnika&lt;br&gt;(arhitekte, inzinjeri, gradj radnici...)" style="whiteSpace=wrap;html=1;rounded=0;" vertex="1" parent="1">
          <mxGeometry x="80" y="390" width="120" height="60" as="geometry" />
        </mxCell>
        <mxCell id="lK-TBmjNOBdQ8cUcPQU5-9" value="" style="edgeStyle=orthogonalEdgeStyle;rounded=0;orthogonalLoop=1;jettySize=auto;html=1;" edge="1" parent="1" source="lK-TBmjNOBdQ8cUcPQU5-10" target="lK-TBmjNOBdQ8cUcPQU5-12">
          <mxGeometry relative="1" as="geometry" />
        </mxCell>
        <mxCell id="lK-TBmjNOBdQ8cUcPQU5-10" value="gradilise" style="rounded=0;whiteSpace=wrap;html=1;" vertex="1" parent="1">
          <mxGeometry x="320" y="270" width="120" height="60" as="geometry" />
        </mxCell>
        <mxCell id="lK-TBmjNOBdQ8cUcPQU5-11" value="" style="edgeStyle=orthogonalEdgeStyle;rounded=0;orthogonalLoop=1;jettySize=auto;html=1;" edge="1" parent="1" source="lK-TBmjNOBdQ8cUcPQU5-12" target="lK-TBmjNOBdQ8cUcPQU5-14">
          <mxGeometry relative="1" as="geometry" />
        </mxCell>
        <mxCell id="lK-TBmjNOBdQ8cUcPQU5-12" value="Odabir mesta" style="rounded=0;whiteSpace=wrap;html=1;" vertex="1" parent="1">
          <mxGeometry x="320" y="410" width="120" height="60" as="geometry" />
        </mxCell>
        <mxCell id="lK-TBmjNOBdQ8cUcPQU5-13" value="" style="edgeStyle=orthogonalEdgeStyle;rounded=0;orthogonalLoop=1;jettySize=auto;html=1;" edge="1" parent="1" source="lK-TBmjNOBdQ8cUcPQU5-14" target="lK-TBmjNOBdQ8cUcPQU5-16">
          <mxGeometry relative="1" as="geometry" />
        </mxCell>
        <mxCell id="lK-TBmjNOBdQ8cUcPQU5-14" value="Oprema potrebna za izgradnju(masine itd.)" style="rounded=0;whiteSpace=wrap;html=1;" vertex="1" parent="1">
          <mxGeometry x="320" y="550" width="120" height="60" as="geometry" />
        </mxCell>
        <mxCell id="lK-TBmjNOBdQ8cUcPQU5-15" value="" style="edgeStyle=orthogonalEdgeStyle;rounded=0;orthogonalLoop=1;jettySize=auto;html=1;" edge="1" parent="1" source="lK-TBmjNOBdQ8cUcPQU5-16" target="lK-TBmjNOBdQ8cUcPQU5-17">
          <mxGeometry relative="1" as="geometry" />
        </mxCell>
        <mxCell id="lK-TBmjNOBdQ8cUcPQU5-16" value="Sigurosne ograde" style="whiteSpace=wrap;html=1;rounded=0;" vertex="1" parent="1">
          <mxGeometry x="320" y="690" width="120" height="60" as="geometry" />
        </mxCell>
        <mxCell id="lK-TBmjNOBdQ8cUcPQU5-17" value="Dezurni radnik (nocna smena)" style="whiteSpace=wrap;html=1;rounded=0;" vertex="1" parent="1">
          <mxGeometry x="320" y="830" width="120" height="60" as="geometry" />
        </mxCell>
        <mxCell id="lK-TBmjNOBdQ8cUcPQU5-18" value="" style="edgeStyle=orthogonalEdgeStyle;rounded=0;orthogonalLoop=1;jettySize=auto;html=1;" edge="1" parent="1" source="lK-TBmjNOBdQ8cUcPQU5-19" target="lK-TBmjNOBdQ8cUcPQU5-21">
          <mxGeometry relative="1" as="geometry" />
        </mxCell>
        <mxCell id="lK-TBmjNOBdQ8cUcPQU5-30" style="edgeStyle=orthogonalEdgeStyle;rounded=0;orthogonalLoop=1;jettySize=auto;html=1;entryX=0.5;entryY=1;entryDx=0;entryDy=0;" edge="1" parent="1" source="lK-TBmjNOBdQ8cUcPQU5-19" target="lK-TBmjNOBdQ8cUcPQU5-27">
          <mxGeometry relative="1" as="geometry">
            <Array as="points">
              <mxPoint x="620" y="220" />
              <mxPoint x="380" y="220" />
            </Array>
          </mxGeometry>
        </mxCell>
        <mxCell id="lK-TBmjNOBdQ8cUcPQU5-19" value="radnik" style="rounded=0;whiteSpace=wrap;html=1;" vertex="1" parent="1">
          <mxGeometry x="560" y="270" width="120" height="60" as="geometry" />
        </mxCell>
        <mxCell id="lK-TBmjNOBdQ8cUcPQU5-20" value="" style="edgeStyle=orthogonalEdgeStyle;rounded=0;orthogonalLoop=1;jettySize=auto;html=1;" edge="1" parent="1" source="lK-TBmjNOBdQ8cUcPQU5-21" target="lK-TBmjNOBdQ8cUcPQU5-23">
          <mxGeometry relative="1" as="geometry" />
        </mxCell>
        <mxCell id="lK-TBmjNOBdQ8cUcPQU5-21" value="lekarsko uverenje" style="rounded=0;whiteSpace=wrap;html=1;" vertex="1" parent="1">
          <mxGeometry x="560" y="410" width="120" height="60" as="geometry" />
        </mxCell>
        <mxCell id="lK-TBmjNOBdQ8cUcPQU5-22" value="" style="edgeStyle=orthogonalEdgeStyle;rounded=0;orthogonalLoop=1;jettySize=auto;html=1;" edge="1" parent="1" source="lK-TBmjNOBdQ8cUcPQU5-23" target="lK-TBmjNOBdQ8cUcPQU5-25">
          <mxGeometry relative="1" as="geometry" />
        </mxCell>
        <mxCell id="lK-TBmjNOBdQ8cUcPQU5-23" value="Obucenost" style="rounded=0;whiteSpace=wrap;html=1;" vertex="1" parent="1">
          <mxGeometry x="560" y="550" width="120" height="60" as="geometry" />
        </mxCell>
        <mxCell id="lK-TBmjNOBdQ8cUcPQU5-24" value="" style="edgeStyle=orthogonalEdgeStyle;rounded=0;orthogonalLoop=1;jettySize=auto;html=1;" edge="1" parent="1" source="lK-TBmjNOBdQ8cUcPQU5-25" target="lK-TBmjNOBdQ8cUcPQU5-26">
          <mxGeometry relative="1" as="geometry" />
        </mxCell>
        <mxCell id="lK-TBmjNOBdQ8cUcPQU5-25" value="Koriscenje bezbednosne &lt;br&gt;opreme" style="whiteSpace=wrap;html=1;rounded=0;" vertex="1" parent="1">
          <mxGeometry x="560" y="690" width="120" height="60" as="geometry" />
        </mxCell>
        <mxCell id="lK-TBmjNOBdQ8cUcPQU5-26" value="Prijava problema" style="whiteSpace=wrap;html=1;rounded=0;" vertex="1" parent="1">
          <mxGeometry x="560" y="830" width="120" height="60" as="geometry" />
        </mxCell>
        <mxCell id="lK-TBmjNOBdQ8cUcPQU5-28" style="edgeStyle=orthogonalEdgeStyle;rounded=0;orthogonalLoop=1;jettySize=auto;html=1;" edge="1" parent="1" source="lK-TBmjNOBdQ8cUcPQU5-27" target="lK-TBmjNOBdQ8cUcPQU5-10">
          <mxGeometry relative="1" as="geometry" />
        </mxCell>
        <mxCell id="lK-TBmjNOBdQ8cUcPQU5-27" value="Bezbednost na gradilistu" style="whiteSpace=wrap;html=1;" vertex="1" parent="1">
          <mxGeometry x="320" y="90" width="120" height="60" as="geometry" />
        </mxCell>
        <mxCell id="JDFypk0yZ713PvR00XcN-1" value="Pracenje zakona propisa i finansija" style="whiteSpace=wrap;html=1;rounded=0;" vertex="1" parent="1">
          <mxGeometry x="80" y="960" width="120" height="60" as="geometry" />
        </mxCell>
      </root>
    </mxGraphModel>
  </diagram>
</mxfile>
